mastitorrents.com
  
http://mastitorrents.com/forums/index.php
  
http://thepiratebay.se/user/HDvideos/0/7

Akaash Vani (2013) - Hindi - Xvid - DvdScr Rip - AC3 -[TDT]

General
Complete name : Akaash Vani (2013) - Xvid - DvdScr Rip - AC3 -[TDT].avi
IMDB : Akaash Vani (2013) - IMDb
Format : AVI
File size : 699 MiB
Duration : 2h 14mn
Overall bit rate : 727 Kbps
Source : DvdSCR @ obaid2k13
Ripper : KingFisheR [~TDT~].

Video
Codec ID : XVID
Duration : 2h 14mn
Bit rate : 621 Kbps
Width : 656 pixels
Height : 272 pixels
Display aspect ratio : 2.40:1
Frame rate : 23.976 fps
Bits/(Pixel*Frame) : 0.145
Stream size : 598 MiB (86%)

Audio

Format : AC-3
Duration : 2h 14mn
Bit rate : 96.0 Kbps
Channel(s) : 2 channels
Channel positions : Front: L R
Sampling rate : 48.0 KHz
Stream size : 92.3 MiB (13%)

Screens: 
http://img854.imageshack.us/img854/4927/vlcsnap2013020218h22m52.png 
http://img201.imageshack.us/img201/1497/vlcsnap2013020218h31m52.png 
http://img831.imageshack.us/img831/830/vlcsnap2013020218h19m54.png 
http://img10.imageshack.us/img10/5599/vlcsnap2013020218h27m23.png 
http://img441.imageshack.us/img441/4071/vlcsnap2013020218h31m33.png 
http://img717.imageshack.us/img717/2017/vlcsnap2013020218h28m19.png 
http://img827.imageshack.us/img827/3152/vlcsnap2013020218h23m04.png 
http://img600.imageshack.us/img600/4628/vlcsnap2013020218h31m35.png 
http://img717.imageshack.us/img717/9893/vlcsnap2013020218h19m42.png 
http://img835.imageshack.us/img835/5834/vlcsnap2013020218h28m28.png 
http://img29.imageshack.us/img29/8316/vlcsnap2013020218h25m51.png 
http://img703.imageshack.us/img703/9361/vlcsnap2013020218h28m44.png 
http://img43.imageshack.us/img43/4787/vlcsnap2013020218h28m41.png 
http://img703.imageshack.us/img703/992/vlcsnap2013020218h19m56.png 
http://img715.imageshack.us/img715/7105/vlcsnap2013020218h18m15.png
